<svg xmlns="http://www.w3.org/2000/svg" version="1.1" xmlns:xlink="http://www.w3.org/1999/xlink" xmlns:svgjs="http://svgjs.dev/svgjs" width="1500" height="371" viewBox="0 0 1500 371"><g transform="matrix(1,0,0,1,-0.9084522071641459,0.18382036293425585)"><svg viewBox="0 0 396 98" data-background-color="#ffffff" preserveAspectRatio="xMidYMid meet" height="371" width="1500" xmlns="http://www.w3.org/2000/svg" xmlns:xlink="http://www.w3.org/1999/xlink"><g id="tight-bounds" transform="matrix(1,0,0,1,0.24008861730862918,-0.04836228756741434)"><svg viewBox="0 0 395.52 98.09691860985191" height="98.09691860985191" width="395.52"><g><svg viewBox="0 0 395.52 98.09691860985191" height="98.09691860985191" width="395.52"><g><svg viewBox="0 0 395.52 98.09691860985191" height="98.09691860985191" width="395.52"><g id="textblocktransform"><svg viewBox="0 0 395.52 98.09691860985191" height="98.09691860985191" width="395.52" id="textblock"><g><svg viewBox="0 0 395.52 98.09691860985191" height="98.09691860985191" width="395.52"><path d="M394.594 21.04C392.735 10.857 387.435 8.027 387.435 8.027 371.165-2.461 350.86-0.201 332.619 1.306 300.414 1.367 268.339 3.608 236.208 4.809 168.767 4.992 100.749 1.978 33.643 9.412 27.339 11.692-6.54 9.86 1.121 22.343 3.129 27.536 10.456 33.3 10.232 38.065 11.236 38.9 12.631 36.986 13.226 38.187 15.309 41.425 18.711 39.898 21.501 41.812 17.614 46.924 20.403 51.18 23.062 55.64 18.377 56.801 12.371 56.251 9.675 60.1 9.396 62.89 7.89 62.36 6.235 62.238 5.026 62.157 2.59 62.462 2.999 63.338 4.394 66.331-1.594 68.062 2.162 70.995-0.422 74.172 3.948 76.921 3.353 80.363 3.278 81.055 3.687 81.646 4.338 81.809 7.22 82.684 3.018 84.395 3.464 86.248 33.029 98.915 65.104 90.158 95.394 95.983 103.259 91.91 97.346 97.428 100.489 96.573 102.943 95.575 104.728 99.709 107.499 97.367 107.927 96.695 107.276 95.107 108.8 95.412 109.6 95.575 110.307 95.535 110.418 94.598 110.586 93.193 109.117 94.068 108.726 93.335 112.947 89.629 111.906 98.447 115.866 98.08 115.68 97.001 114.528 95.453 116.889 95.657 119.232 94.109 119.306 92.826 121.389 96.308 121.463 97.062 121.835 97.591 122.43 97.958 128.938 94.17 135.409 99.302 142.233 97.591 146.417 95.718 150.433 98.61 154.672 97.897 156.16 97.327 157.666 96.308 159.098 98.019 176.632 98.386 195.319 96.858 211.943 98.08 256.364 95.799 303.836 99.017 350.674 96.003 361.719 94.842 373.192 93.193 383.958 91.869 383.958 91.869 392.679 88.244 392.679 71.952S394.538 57.697 394.817 44.724C395.096 31.752 396.398 31.222 394.538 21.04Z" opacity="1" fill="#755bb4" data-fill-palette-color="tertiary"></path><g transform="matrix(1,0,0,1,55.76832,26.230666666666668)"><svg width="283.98335999999995" viewBox="1.32 -33.2 215.41 34.620000000000005" height="45.63558527651858" data-palette-color="#ffffff"><path d="M25.29-17.82L25.29-17.82Q23.24-19.29 20.02-19.29L20.02-19.29Q16.99-19.29 14.4-18.16L14.4-18.16Q9.52-16.11 7.71-12.89L7.71-12.89Q6.93-11.43 6.93-9.77L6.93-9.77Q6.93-9.47 6.93-8.13 6.93-6.79 7.42-4.52 7.91-2.25 7.91 0.1L7.91 0.1Q6.88 0.15 6.25 0.34 5.62 0.54 5.18 0.54 4.74 0.54 4.42 0.15 4.1-0.24 3.71-1.37L3.71-1.37Q3.66-1.66 3.52-3.03 3.37-4.39 3.15-6.35 2.93-8.3 2.66-10.62 2.39-12.94 2.15-15.19L2.15-15.19Q1.61-20.07 1.32-22.36L1.32-22.36Q1.32-23.54 3.03-23.54L3.03-23.54Q4.05-23.54 4.64-22.68 5.22-21.83 5.57-20.73 5.91-19.63 6.03-18.55 6.15-17.48 6.25-17.04L6.25-17.04Q12.7-22.8 22.27-22.8L22.27-22.8Q23.34-22.8 24.51-22.75L24.51-22.75Q24.8-22.8 25.24-22.8 25.68-22.8 26.12-22.22L26.12-22.22Q26.66-21.53 26.66-20.56L26.66-20.56Q26.66-18.12 25.29-17.82ZM38.86-3.42L38.86-3.42Q43.16-3.42 51.8-7.32L51.8-7.32Q52.34-7.32 52.68-6.96 53.02-6.59 53.02-6.1L53.02-6.1Q51.07-2.78 45.55-0.93 40.04 0.93 35.25-0.29L35.25-0.29Q29.83-1.71 28.66-6.4L28.66-6.4Q28.56-7.32 28.56-8.89 28.56-10.45 29.37-13.01 30.17-15.58 32.13-17.87 34.08-20.17 36.72-21.48 39.35-22.8 42.33-22.8L42.33-22.8Q45.16-22.8 48.68-20.85L48.68-20.85Q50.34-19.92 51.32-18.75 52.29-17.58 52.29-16.36L52.29-16.36Q52.29-16.02 52.24-15.67L52.24-15.67Q52.15-12.7 49.36-11.91L49.36-11.91Q48.14-11.57 46.53-11.57L46.53-11.57 39.5-11.87Q35.98-11.87 34.13-10.35L34.13-10.35Q33.05-9.52 32.61-7.86L32.61-7.86Q33.84-3.42 38.86-3.42ZM47.58-18.51Q46.48-19.29 45.31-19.63 44.14-19.97 43.36-19.97 42.58-19.97 40.82-19.46 39.06-18.95 37.69-18.31L37.69-18.31Q34.32-16.75 34.32-15.04L34.32-15.04Q38.23-14.7 40.18-14.7L40.18-14.7Q45.6-14.7 47.51-15.63L47.51-15.63Q48.68-16.11 48.68-16.85L48.68-16.85Q48.68-17.72 47.58-18.51ZM72.65-12.6L72.65-12.6Q78.02-12.6 78.02-9.86L78.02-9.86Q78.02-7.81 75.04-5.08L75.04-5.08Q70.6-1.03 63.08 1.42L63.08 1.42Q62.74 1.42 62.32 0.73 61.91 0.05 61.69-0.32 61.47-0.68 61.37-0.78L61.37-0.78Q66.99-2.64 70.6-5.27L70.6-5.27Q73.04-7.03 73.04-8.15 73.04-9.28 70.16-9.28 67.28-9.28 61.71-7.91L61.71-7.91Q59.17-8.01 57.32-9.72L57.32-9.72Q55.71-11.23 55.71-12.77 55.71-14.31 56.59-15.6 57.47-16.89 58.93-18.02 60.4-19.14 62.35-20.07L62.35-20.07Q67.13-22.36 72.26-22.36L72.26-22.36Q73.77-22.36 75.19-22.07L75.19-22.07Q76.36-22.07 76.56-21.04 76.75-20.02 76.75-17.68L76.75-17.68Q73.87-18.99 70.26-18.99L70.26-18.99Q65.77-18.99 62.84-17.19L62.84-17.19Q59.81-15.43 59.71-12.6L59.71-12.6Q59.71-11.23 61.71-11.23L61.71-11.23 65.28-11.62Q69.87-12.6 72.65-12.6ZM80.8-6.49L80.8-6.49Q80.8-7.28 80.68-8.67 80.56-10.06 80.46-11.72 80.36-13.38 80.36-15.09 80.36-16.8 80.66-18.21L80.66-18.21Q81.29-21.39 83.29-21.39L83.29-21.39Q84.66-21 85.12-20.41 85.59-19.82 85.59-18.97 85.59-18.12 85.15-16.85L85.15-16.85Q83.54-12.6 83.54-9.18L83.54-9.18Q83.54-8.06 83.68-6.79L83.68-6.79Q84.47-3.52 89.06-3.52L89.06-3.52Q91.45-3.52 93.6-4.35L93.6-4.35Q97.7-5.86 99.16-7.91L99.16-7.91Q99.6-10.16 99.6-11.84 99.6-13.53 99.48-14.84 99.36-16.16 99.19-17.75 99.02-19.34 98.97-21.24L98.97-21.24Q99.6-21.53 100.21-21.53 100.82-21.53 101.48-20.9 102.14-20.26 102.6-18.51 103.07-16.75 103.22-14.38 103.36-12.01 103.39-9.47 103.41-6.93 103.41-4.57 103.41-2.2 103.61-0.49L103.61-0.49Q103.02 0.05 102.48 0.05L102.48 0.05Q100.53 0.05 99.6-3.86L99.6-3.86Q98.97-3.32 97.45-2.54L97.45-2.54Q94.23-0.78 89.84-0.2L89.84-0.2Q89.01-0.1 87.98-0.1 86.96-0.1 85.42-0.49 83.88-0.88 82.51-2.29 81.14-3.71 80.8-6.49ZM110.49-0.78L110.49-0.78Q108.49 0.05 107.83 0.05 107.17 0.05 106.92-0.1 106.68-0.24 106.39-0.78L106.39-0.78Q106.39-2.39 106.51-4.83 106.63-7.28 106.73-10.06 106.83-12.84 106.83-15.67 106.83-18.51 106.53-20.85L106.53-20.85Q106.53-22.41 108.63-22.41L108.63-22.41Q109.12-22.41 109.39-20.65 109.66-18.9 109.78-17.92 109.9-16.94 110-16.5L110-16.5Q111.27-18.8 115.03-20.12L115.03-20.12Q117.03-20.75 118.79-20.75 120.55-20.75 121.89-20.34 123.23-19.92 124.18-18.82 125.14-17.72 125.14-15.92L125.14-15.92Q126.41-18.31 130.85-20.21L130.85-20.21Q134.9-22.02 138.12-22.02L138.12-22.02Q142.76-22.02 142.67-18.51L142.67-18.51 143.69-0.34Q143.69-0.1 142.28 0L142.28 0Q139.54 0.2 139.54-0.49L139.54-0.49Q139.49-1.46 139.49-2.44L139.49-2.44 139.74-10.3Q139.74-15.82 138.66-19.04L138.66-19.04Q135.44-18.8 133.71-17.99 131.97-17.19 130.65-15.99 129.34-14.79 128.31-12.79L128.31-12.79Q126.02-8.3 126.02-0.88L126.02-0.88Q125.72 0.15 124.11 0.15L124.11 0.15Q123.04 0.15 122.35-0.22 121.67-0.59 121.82-0.88L121.82-0.88Q122.74-6.05 122.74-8.94L122.74-8.94Q122.74-11.23 122.28-13.31 121.82-15.38 121.13-18.07L121.13-18.07Q114.1-18.07 111.66-12.45L111.66-12.45Q110.59-9.96 110.46-7.79 110.34-5.62 110.34-4.08 110.34-2.54 110.49-0.78ZM164.54-8.11L164.54-8.11Q160.88-2.34 154.77-0.98L154.77-0.98Q153.36-0.68 152.21-0.68 151.06-0.68 150.3-0.71 149.55-0.73 148.62-0.93 147.69-1.12 146.91-1.56L146.91-1.56Q145.1-2.59 145.1-4.44L145.1-4.44Q144.91-5.32 144.91-6.42 144.91-7.52 145.4-9.33 145.89-11.13 147.18-13.23 148.47-15.33 150.33-17.09L150.33-17.09Q154.19-20.8 158.68-21.88L158.68-21.88Q160-22.17 161.1-22.17 162.19-22.17 163.07-22.02L163.07-22.02Q165.91-22.02 166.88-18.16L166.88-18.16Q167.52-15.72 167.64-11.35 167.76-6.98 167.88-4.61 168.01-2.25 168.49-0.29L168.49-0.29 165.61-0.29Q165.42-1.61 165.32-2.64 165.22-3.66 165.12-4.54L165.12-4.54Q164.88-6.59 164.54-8.11ZM164.34-15.67L164.34-15.67Q164.34-18.51 161.56-18.51L161.56-18.51Q161.22-18.55 160.88-18.55L160.88-18.55Q157.31-18.55 153.36-15.14L153.36-15.14Q151.5-13.57 150.18-11.62L150.18-11.62Q148.23-8.84 148.23-6.64L148.23-6.64Q148.23-3.76 151.55-3.22L151.55-3.22Q155.94-3.32 159.95-7.23L159.95-7.23Q161.66-8.94 162.78-10.94L162.78-10.94Q164.34-13.62 164.34-15.67ZM194.76-17.82L194.76-17.82Q192.71-19.29 189.49-19.29L189.49-19.29Q186.46-19.29 183.87-18.16L183.87-18.16Q178.99-16.11 177.18-12.89L177.18-12.89Q176.4-11.43 176.4-9.77L176.4-9.77Q176.4-9.47 176.4-8.13 176.4-6.79 176.89-4.52 177.38-2.25 177.38 0.1L177.38 0.1Q176.35 0.15 175.72 0.34 175.08 0.54 174.64 0.54 174.2 0.54 173.89 0.15 173.57-0.24 173.18-1.37L173.18-1.37Q173.13-1.66 172.98-3.03 172.84-4.39 172.62-6.35 172.4-8.3 172.13-10.62 171.86-12.94 171.62-15.19L171.62-15.19Q171.08-20.07 170.79-22.36L170.79-22.36Q170.79-23.54 172.49-23.54L172.49-23.54Q173.52-23.54 174.11-22.68 174.69-21.83 175.03-20.73 175.38-19.63 175.5-18.55 175.62-17.48 175.72-17.04L175.72-17.04Q182.16-22.8 191.73-22.8L191.73-22.8Q192.81-22.8 193.98-22.75L193.98-22.75Q194.27-22.8 194.71-22.8 195.15-22.8 195.59-22.22L195.59-22.22Q196.13-21.53 196.13-20.56L196.13-20.56Q196.13-18.12 194.76-17.82ZM205.74-4.69L205.74-4.69 205.84-12.5Q205.84-14.36 205.5-15.67L205.5-15.67 197.93-15.67 197.83-19.04 205.16-19.04 205.16-31.64Q205.3-32.08 205.74-32.52L205.74-32.52Q206.43-33.2 206.89-33.2 207.36-33.2 207.7-33.11 208.04-33.01 208.43-32.42L208.43-32.42Q209.21-29.2 209.21-22.71L209.21-22.71Q209.21-21.09 209.36-19.53L209.36-19.53Q210.92-19.73 212.48-19.73L212.48-19.73Q212.48-19.73 215.02-19.73L215.02-19.73Q215.95-19.73 216.73-19.82L216.73-19.82 216.58-16.31 209.46-16.5 209.7 0.34Q208.82 0.73 208.19 0.73L208.19 0.73Q205.74 0.73 205.74-4.69Z" opacity="1" transform="matrix(1,0,0,1,0,0)" fill="#ffffff" class="wordmark-text-0" data-fill-palette-color="quaternary" id="text-0"></path></svg></g></svg></g></svg></g></svg></g><g></g></svg></g><defs></defs></svg><rect width="395.52" height="98.09691860985191" fill="none" stroke="none" visibility="hidden"></rect></g></svg></g></svg>